<svg width="112" height="54" viewBox="0 0 112 54" fill="none" xmlns="http://www.w3.org/2000/svg">
<g clip-path="url(#clip0_1057_3016)">
<path d="M11.7636 34.5562L0.560064 50.2171C0.195833 50.7263 0 51.3366 0 51.9626V57C0 58.6569 1.34315 60 3 60H109C110.657 60 112 58.6569 112 57V16.5467L103.293 23.8491C102.076 24.8697 100.275 24.765 99.1843 23.6102L91.0994 15.0484C90.012 13.8969 88.2168 13.789 86.9994 14.802L75.3559 24.49C74.4882 25.212 73.2887 25.3858 72.2518 24.9398L60.8968 20.0559C60.1959 19.7545 59.4066 19.7314 58.6893 19.9913L51.6739 22.5337C50.6523 22.904 49.5104 22.6928 48.6887 21.9818L45.1606 18.9288C43.7337 17.6941 41.5349 18.0675 40.5956 19.7039L31.1218 36.2097C30.4124 37.4457 28.9312 38.012 27.5781 37.5646L15.1454 33.4534C13.8982 33.041 12.5278 33.4879 11.7636 34.5562Z" fill="url(#paint0_linear_1057_3016)"/>
<path d="M0 51L11.7636 34.5562C12.5278 33.4879 13.8982 33.041 15.1454 33.4534L27.5781 37.5646C28.9312 38.012 30.4124 37.4457 31.1218 36.2097L40.5956 19.7039C41.5349 18.0675 43.7337 17.6941 45.1606 18.9288L48.6887 21.9818C49.5104 22.6928 50.6523 22.904 51.6739 22.5337L58.6893 19.9913C59.4066 19.7314 60.1959 19.7545 60.8968 20.0559L72.2518 24.9398C73.2887 25.3858 74.4882 25.212 75.3559 24.49L86.9993 14.802C88.2168 13.789 90.012 13.8969 91.0994 15.0484L99.1843 23.6102C100.275 24.765 102.076 24.8697 103.293 23.8491L112 16.5467" stroke="#12B76A" stroke-width="3" stroke-linecap="round"/>
</g>
<defs>
<linearGradient id="paint0_linear_1057_3016" x1="56" y1="13" x2="56" y2="60" gradientUnits="userSpaceOnUse">
<stop stop-color="#A6F4C5"/>
<stop offset="1" stop-color="#A6F4C5" stop-opacity="0"/>
</linearGradient>
<clipPath id="clip0_1057_3016">
<rect width="112" height="54" fill="white"/>
</clipPath>
</defs>
</svg>
